<?xml version="1.0" standalone="no"?>
<!DOCTYPE svg PUBLIC "-//W3C//DTD SVG 20010904//EN"
 "http://www.w3.org/TR/2001/REC-SVG-20010904/DTD/svg10.dtd">
<svg version="1.0" xmlns="http://www.w3.org/2000/svg"
 width="512.000000pt" height="512.000000pt" viewBox="0 0 512.000000 512.000000"
 preserveAspectRatio="xMidYMid meet">
<metadata>
Created by potrace 1.14, written by Peter Selinger 2001-2017
</metadata>
<g transform="translate(0.000000,512.000000) scale(0.100000,-0.100000)"
fill="#000000" stroke="none">
<path d="M3135 4293 c-60 -9 -50 -23 16 -23 161 0 259 -72 259 -190 0 -55 -20
-99 -63 -137 -53 -46 -95 -57 -206 -50 -117 7 -176 22 -517 136 -313 105 -435
131 -603 131 -215 0 -357 -55 -497 -195 -119 -118 -174 -244 -174 -398 0 -156
67 -287 185 -362 98 -63 210 -98 142 -45 -65 51 -90 187 -49 267 27 52 88 106
146 128 38 15 66 17 159 12 130 -6 301 -47 612 -147 281 -90 482 -140 600
-148 l100 -7 3 -216 2 -216 -170 -148 c-94 -82 -169 -152 -168 -156 2 -4 78
-76 171 -159 l167 -151 0 -315 0 -314 -27 -11 c-62 -23 -195 -50 -305 -60
-257 -25 -521 36 -705 162 -165 114 -289 319 -328 546 -28 161 -14 452 27 579
13 38 17 41 153 101 l140 62 3 -634 c1 -349 6 -635 10 -635 4 0 133 56 287
123 l280 124 3 651 c1 359 -1 652 -4 652 -4 0 -194 -83 -422 -186 -228 -102
-417 -182 -420 -179 -11 11 99 210 151 275 63 78 167 166 253 217 106 62 83
62 -106 1 -127 -41 -295 -122 -410 -199 -117 -78 -288 -246 -360 -353 -137
-206 -200 -432 -187 -676 31 -591 457 -1057 1079 -1182 160 -32 436 -32 585 0
560 121 886 524 929 1150 4 60 3 102 -2 102 -5 0 -20 -28 -34 -61 -56 -141
-180 -307 -301 -403 -78 -61 -203 -138 -246 -151 l-23 -6 1 313 0 313 169 150
c93 83 170 152 170 155 0 3 -76 73 -170 155 l-170 150 0 213 c0 162 3 213 13
216 6 2 41 9 77 15 206 39 388 211 429 409 25 122 6 256 -52 354 -14 24 -52
69 -86 101 -125 119 -324 177 -516 150z"/>
</g>
</svg>
