<?xml version="1.0" standalone="no"?>
<!DOCTYPE svg PUBLIC "-//W3C//DTD SVG 20010904//EN"
 "http://www.w3.org/TR/2001/REC-SVG-20010904/DTD/svg10.dtd">
<svg version="1.0" xmlns="http://www.w3.org/2000/svg"
 width="512.000000pt" height="512.000000pt" viewBox="0 0 512.000000 512.000000"
 preserveAspectRatio="xMidYMid meet">
<metadata>
Created by potrace 1.14, written by Peter Selinger 2001-2017
</metadata>
<g transform="translate(0.000000,512.000000) scale(0.100000,-0.100000)"
fill="#000000" stroke="none">
<path d="M2408 5115 c-1 -1 -30 -6 -63 -10 -100 -11 -267 -52 -372 -91 -596
-222 -1023 -760 -1100 -1384 -10 -77 -10 -364 0 -435 33 -252 119 -494 259
-733 46 -78 221 -343 248 -374 6 -7 50 -65 98 -128 48 -64 99 -131 114 -150
281 -358 340 -435 344 -445 3 -8 -11 -14 -41 -19 -26 -3 -108 -20 -183 -36
-423 -94 -718 -260 -814 -459 -29 -59 -32 -75 -32 -151 0 -65 6 -96 22 -134
69 -152 231 -275 502 -381 123 -48 374 -114 500 -131 19 -2 44 -6 55 -8 11 -2
45 -7 75 -11 30 -4 65 -8 78 -10 168 -26 780 -27 918 -1 10 2 50 7 89 11 38 4
72 8 76 10 3 2 28 7 55 10 167 22 432 97 582 166 35 16 65 29 68 29 2 0 44 24
92 54 114 71 202 159 244 244 29 60 33 76 33 152 0 76 -4 93 -32 150 -36 74
-119 163 -205 221 -183 125 -485 229 -795 275 -24 4 -43 9 -43 13 0 3 41 58
91 121 219 277 446 575 532 699 276 393 406 695 445 1026 9 76 9 354 0 420
-79 591 -439 1086 -973 1335 -230 107 -421 150 -692 155 -94 2 -173 2 -175 0z
m304 -1219 c111 -33 235 -138 291 -246 39 -75 58 -166 53 -256 -8 -136 -49
-227 -146 -325 -105 -106 -220 -150 -375 -144 -312 13 -531 304 -459 612 41
176 190 325 369 369 65 16 195 11 267 -10z"/>
</g>
</svg>
